<svg width="25" height="25" viewBox="0 0 25 25" fill="none" xmlns="http://www.w3.org/2000/svg">

<!--  logo  -->

    <g id="logo">
        <path d="M17.304 32.608C17.304 34.714 20.304 36.434 24 36.434C27.698 36.434 30.696 34.714 30.696 32.608H40.26V10.928C40.26 10.0825 39.9241 9.2716 39.3263 8.67373C38.7284 8.07587 37.9175 7.73999 37.072 7.73999H10.928C10.0827 7.74052 9.27208 8.07657 8.67433 8.67432C8.07658 9.27207 7.74053 10.0826 7.74 10.928V32.608H17.304Z" fill="#66E1FF"/>
        <path d="M36.436 7.73999H10.928C10.0827 7.74052 9.27208 8.07657 8.67433 8.67432C8.07658 9.27207 7.74053 10.0826 7.74 10.928V32.608H11.566L36.436 7.73999Z" fill="#C2F3FF"/>
        <path d="M17.304 32.608C17.304 34.714 20.304 36.434 24 36.434C27.698 36.434 30.696 34.714 30.696 32.608H40.26V10.928C40.26 10.0825 39.9241 9.2716 39.3263 8.67373C38.7284 8.07587 37.9175 7.73999 37.072 7.73999H10.928C10.0827 7.74052 9.27208 8.07657 8.67433 8.67432C8.07658 9.27207 7.74053 10.0826 7.74 10.928V32.608H17.304Z" stroke="#191919" stroke-width="2" stroke-linecap="round" stroke-linejoin="round"/>
        <path d="M30.696 32.608C30.696 34.714 27.698 36.434 24 36.434C20.302 36.434 17.304 34.714 17.304 32.608H2C2.54568 34.7941 3.80669 36.735 5.58247 38.1219C7.35825 39.5089 9.5468 40.2621 11.8 40.262H36.2C38.4532 40.2621 40.6418 39.5089 42.4175 38.1219C44.1933 36.735 45.4543 34.7941 46 32.608H30.696Z" fill="white" stroke="#191919" stroke-width="2" stroke-linecap="round" stroke-linejoin="round"/>
        <path d="M19.218 15.392V19.218M28.782 15.392V19.218M31.652 24C29.5319 25.8496 26.8135 26.8687 24 26.8687C21.1865 26.8687 18.4681 25.8496 16.348 24" stroke="#191919" stroke-width="2" stroke-linecap="round" stroke-linejoin="round"/>
    </g>

<!--  contacts  -->

    <g id="phone">
    <path d="M13.858 16.0729L16.417 13.8675C16.5009 13.7914 16.6018 13.7339 16.7124 13.6992C16.8229 13.6645 16.9403 13.6535 17.056 13.667L17.482 13.8675L23.444 16.473C23.87 16.6735 23.87 16.874 23.87 17.275C23.8565 17.9527 23.6992 18.621 23.4072 19.2406C23.1153 19.8602 22.6946 20.4186 22.17 20.8829C21.5776 21.4196 20.8761 21.8379 20.1076 22.1129C19.3391 22.3879 18.5195 22.5138 17.698 22.4831C15.6199 22.4715 13.5752 21.9902 11.736 21.0797C9.56765 19.9977 7.56034 18.6514 5.766 17.0754C4.5807 15.6861 3.51277 14.2117 2.572 12.6655C1.72691 11.2568 1.01452 9.78121 0.442996 8.25554C0.0912664 7.01498 -0.0524657 5.73033 0.0169965 4.44802C0.157232 3.32092 0.680145 2.26651 1.508 1.44155C2.64648 0.552618 4.07395 0.0573397 5.553 0.0380859C5.71778 0.0409482 5.8798 0.0784389 6.02721 0.147817C6.17462 0.217195 6.30369 0.316706 6.405 0.439075L9.599 6.05104C9.62133 6.20308 9.69617 6.34399 9.812 6.45203C9.82635 6.56089 9.81467 6.6714 9.77782 6.77546C9.74097 6.87953 9.67987 6.97453 9.599 7.05351L6.831 9.45851C6.72459 9.60648 6.66773 9.78106 6.66773 9.95974C6.66773 10.1384 6.72459 10.313 6.831 10.461C7.56107 11.6112 8.41743 12.6861 9.386 13.668C10.4243 14.6436 11.5659 15.5166 12.793 16.2734C13.217 16.4739 13.645 16.4739 13.858 16.0729Z" fill="#F8EEEF"/>
</g>

    <g id="email">
        <path fill-rule="evenodd" clip-rule="evenodd" d="M20.868 6.47395H2.981L11.924 13.4894L20.868 6.47395ZM0 6.47395C0.00237401 5.73045 0.317205 5.01803 0.875737 4.49229C1.43427 3.96655 2.19112 3.6702 2.981 3.66797L20.868 3.66797C21.6579 3.6702 22.4147 3.96655 22.9733 4.49229C23.5318 5.01803 23.8466 5.73045 23.849 6.47395V17.6979C23.8466 18.4414 23.5318 19.1538 22.9733 19.6795C22.4147 20.2053 21.6579 20.5016 20.868 20.5039H2.981C2.19112 20.5016 1.43427 20.2053 0.875737 19.6795C0.317205 19.1538 0.00237401 18.4414 0 17.6979L0 6.47395Z" fill="#F8EEEF"/>
    </g>

    <g id="location">
        <path fill-rule="evenodd" clip-rule="evenodd" d="M10.8494 14.4058C11.4301 14.4067 12.0052 14.2984 12.5418 14.087C13.0784 13.8757 13.566 13.5654 13.9765 13.1741C14.3871 12.7828 14.7126 12.318 14.9343 11.8066C15.156 11.2951 15.2697 10.7469 15.2687 10.1935C15.277 9.05984 14.819 7.96823 13.9929 7.15263C13.1668 6.33703 12.0383 5.86235 10.8494 5.83034C10.2687 5.82927 9.69351 5.93749 9.15677 6.14878C8.62004 6.36008 8.13235 6.6703 7.72167 7.06164C7.311 7.45299 6.98542 7.91776 6.76361 8.4293C6.54181 8.94085 6.42813 9.4891 6.42911 10.0426C6.4483 11.1685 6.91549 12.2454 7.73613 13.0555C8.55678 13.8655 9.6696 14.3481 10.8494 14.4058ZM3.43017 2.97085C5.39789 1.09544 8.06662 0.0418972 10.8493 0.0419922C13.6319 0.0420871 16.3006 1.09581 18.2682 2.97136C20.2357 4.8469 21.3411 7.39064 21.341 10.043C21.3409 12.6953 20.2354 15.239 18.2676 17.1144L10.8494 24.1871L3.43017 17.1144C1.5297 15.2055 0.470215 12.6742 0.470215 10.0426C0.470215 7.41101 1.5297 4.87976 3.43017 2.97085Z" fill="white"/>
    </g>

<!--  social  -->

    <g id="linkedin">
        <path d="M20.448 20.4516H16.8936V14.8836C16.8936 13.5552 16.866 11.8464 15.0408 11.8464C13.188 11.8464 12.9048 13.2912 12.9048 14.7852V20.4516H9.3516V9H12.7644V10.56H12.8112C13.2876 9.66 14.448 8.712 16.1808 8.712C19.782 8.712 20.448 11.0808 20.448 14.166V20.4516ZM5.3364 7.4328C4.1916 7.4328 3.2724 6.5076 3.2724 5.3688C3.2724 4.23 4.1928 3.3048 5.3364 3.3048C5.88381 3.3048 6.40879 3.52226 6.79587 3.90933C7.18294 4.29641 7.4004 4.82139 7.4004 5.3688C7.4004 5.91621 7.18294 6.44119 6.79587 6.82827C6.40879 7.21534 5.88381 7.4328 5.3364 7.4328ZM7.1172 20.4528H3.5532V9H7.1172V20.4528ZM22.2264 0H1.7712C0.792 0 0 0.774 0 1.728V22.272C0 23.226 0.792 24 1.7712 24H22.2216C23.1996 24 24 23.2272 24 22.272V1.728C24 0.7752 23.1996 0 22.2216 0H22.2264Z" fill="#F8EEEF"/>
    </g>

    <g id="linkedin2">
        <path d="M19 3C19.5304 3 20.0391 3.21071 20.4142 3.58579C20.7893 3.96086 21 4.46957 21 5V19C21 19.5304 20.7893 20.0391 20.4142 20.4142C20.0391 20.7893 19.5304 21 19 21H5C4.46957 21 3.96086 20.7893 3.58579 20.4142C3.21071 20.0391 3 19.5304 3 19V5C3 4.46957 3.21071 3.96086 3.58579 3.58579C3.96086 3.21071 4.46957 3 5 3H19ZM18.5 18.5V13.2C18.5 12.3354 18.1565 11.5062 17.5452 10.8948C16.9338 10.2835 16.1046 9.94 15.24 9.94C14.39 9.94 13.4 10.46 12.92 11.24V10.13H10.13V18.5H12.92V13.57C12.92 12.8 13.54 12.17 14.31 12.17C14.6813 12.17 15.0374 12.3175 15.2999 12.5801C15.5625 12.8426 15.71 13.1987 15.71 13.57V18.5H18.5ZM6.88 8.56C7.32556 8.56 7.75288 8.383 8.06794 8.06794C8.383 7.75288 8.56 7.32556 8.56 6.88C8.56 5.95 7.81 5.19 6.88 5.19C6.43178 5.19 6.00193 5.36805 5.68499 5.68499C5.36805 6.00193 5.19 6.43178 5.19 6.88C5.19 7.81 5.95 8.56 6.88 8.56ZM8.27 18.5V10.13H5.5V18.5H8.27Z" fill="#F8EEEF"/>
    </g>

    <g id="facebook">
        <path d="M24.1492 11.9134C24.1492 5.71258 18.7406 0.688965 12.0748 0.688965C5.40451 0.688965 0.000488281 5.71258 0.000488281 11.9134C0.000488281 17.5143 4.41441 22.1584 10.1882 22.9996V15.1586H7.12208V11.9141H10.1882V9.43979C10.1882 6.62737 11.988 5.0742 14.747 5.0742C16.0684 5.0742 17.4517 5.29307 17.4517 5.29307V8.05498H15.9265C14.4293 8.05498 13.9614 8.92136 13.9614 9.80879V11.9134H17.3098L16.7717 15.1579H13.9614V22.9989C19.7307 22.1577 24.1492 17.5143 24.1492 11.9134Z" fill="#F8EEEF"/>
    </g>

    <g id="instagram">
        <path d="M11.997 8.12425C9.79351 8.12425 7.99529 9.79588 7.99529 11.8443C7.99529 13.8926 9.79351 15.5643 11.997 15.5643C14.2005 15.5643 15.9987 13.8926 15.9987 11.8443C15.9987 9.79588 14.2005 8.12425 11.997 8.12425ZM23.9991 11.8443C23.9991 10.3038 24.0141 8.77727 23.9211 7.23959C23.828 5.45354 23.3897 3.86841 21.9847 2.56236C20.5768 1.25352 18.8746 0.848865 16.9533 0.762353C15.2962 0.675841 13.6541 0.689795 12 0.689795C10.3429 0.689795 8.70077 0.675841 7.04665 0.762353C5.12536 0.848865 3.4202 1.25631 2.01525 2.56236C0.607303 3.8712 0.172008 5.45354 0.0789456 7.23959C-0.0141172 8.78006 0.000892936 10.3066 0.000892936 11.8443C0.000892936 13.3819 -0.0141172 14.9113 0.0789456 16.4489C0.172008 18.235 0.610305 19.8201 2.01525 21.1262C3.4232 22.435 5.12536 22.8397 7.04665 22.9262C8.70377 23.0127 10.3459 22.9987 12 22.9987C13.6571 22.9987 15.2992 23.0127 16.9533 22.9262C18.8746 22.8397 20.5798 22.4322 21.9847 21.1262C23.3927 19.8173 23.828 18.235 23.9211 16.4489C24.0171 14.9113 23.9991 13.3847 23.9991 11.8443ZM11.997 17.568C8.58969 17.568 5.83984 15.0117 5.83984 11.8443C5.83984 8.67681 8.58969 6.12052 11.997 6.12052C15.4043 6.12052 18.1542 8.67681 18.1542 11.8443C18.1542 15.0117 15.4043 17.568 11.997 17.568ZM18.4063 7.22285C17.6108 7.22285 16.9684 6.62563 16.9684 5.8861C16.9684 5.14656 17.6108 4.54935 18.4063 4.54935C19.2019 4.54935 19.8443 5.14656 19.8443 5.8861C19.8445 6.0617 19.8075 6.23563 19.7353 6.39791C19.6631 6.56019 19.5572 6.70764 19.4237 6.83181C19.2901 6.95599 19.1315 7.05444 18.9569 7.12154C18.7823 7.18864 18.5952 7.22307 18.4063 7.22285Z" fill="#F8EEEF"/>
    </g>

    <g id="whatsapp">
        <path d="M20.925 6.36003C17.79 1.50003 11.37 0.0600268 6.405 3.07503C1.56 6.09003 8.94716e-07 12.66 3.135 17.505L3.39 17.895L2.34 21.825L6.27 20.775L6.66 21.03C8.355 21.945 10.2 22.47 12.03 22.47C13.995 22.47 15.96 21.945 17.655 20.895C22.5 17.745 23.94 11.31 20.925 6.33003V6.36003ZM18.18 16.47C17.655 17.25 16.995 17.775 16.08 17.91C15.555 17.91 14.895 18.165 12.285 17.13C10.065 16.08 8.22 14.37 6.915 12.405C6.135 11.49 5.73 10.305 5.61 9.12003C5.61 8.07003 6 7.15503 6.66 6.49503C6.915 6.24003 7.185 6.10503 7.44 6.10503H8.1C8.355 6.10503 8.625 6.10503 8.76 6.63003C9.015 7.29003 9.675 8.86503 9.675 9.00003C9.81 9.13503 9.75 10.14 9.15 10.71C8.82 11.085 8.76 11.1 8.895 11.37C9.42 12.15 10.08 12.945 10.725 13.605C11.505 14.265 12.3 14.79 13.215 15.18C13.47 15.315 13.74 15.315 13.875 15.045C14.01 14.79 14.655 14.13 14.925 13.86C15.18 13.605 15.315 13.605 15.585 13.725L17.685 14.775C17.94 14.91 18.21 15.03 18.345 15.165C18.48 15.555 18.48 16.08 18.21 16.47H18.18Z" fill="#F8EEEF"/>
    </g>


    <g id="whatsapp2">
        <path d="M19.05 4.90999C18.1331 3.9841 17.041 3.24996 15.8375 2.75036C14.634 2.25075 13.3431 1.99568 12.04 1.99999C6.58 1.99999 2.13 6.44999 2.13 11.91C2.13 13.66 2.59 15.36 3.45 16.86L2.05 22L7.3 20.62C8.75 21.41 10.38 21.83 12.04 21.83C17.5 21.83 21.95 17.38 21.95 11.92C21.95 9.26999 20.92 6.77999 19.05 4.90999ZM12.04 20.15C10.56 20.15 9.11 19.75 7.84 19L7.54 18.82L4.42 19.64L5.25 16.6L5.05 16.29C4.22755 14.9771 3.79092 13.4593 3.79 11.91C3.79 7.36999 7.49 3.66999 12.03 3.66999C14.23 3.66999 16.3 4.52999 17.85 6.08999C18.6176 6.85386 19.2259 7.76254 19.6396 8.76332C20.0533 9.76411 20.2642 10.8371 20.26 11.92C20.28 16.46 16.58 20.15 12.04 20.15ZM16.56 13.99C16.31 13.87 15.09 13.27 14.87 13.18C14.64 13.1 14.48 13.06 14.31 13.3C14.14 13.55 13.67 14.11 13.53 14.27C13.39 14.44 13.24 14.46 12.99 14.33C12.74 14.21 11.94 13.94 11 13.1C10.26 12.44 9.77 11.63 9.62 11.38C9.48 11.13 9.6 11 9.73 10.87C9.84 10.76 9.98 10.58 10.1 10.44C10.22 10.3 10.27 10.19 10.35 10.03C10.43 9.85999 10.39 9.71999 10.33 9.59999C10.27 9.47999 9.77 8.25999 9.57 7.75999C9.37 7.27999 9.16 7.33999 9.01 7.32999H8.53C8.36 7.32999 8.1 7.38999 7.87 7.63999C7.65 7.88999 7.01 8.48999 7.01 9.70999C7.01 10.93 7.9 12.11 8.02 12.27C8.14 12.44 9.77 14.94 12.25 16.01C12.84 16.27 13.3 16.42 13.66 16.53C14.25 16.72 14.79 16.69 15.22 16.63C15.7 16.56 16.69 16.03 16.89 15.45C17.1 14.87 17.1 14.38 17.03 14.27C16.96 14.16 16.81 14.11 16.56 13.99Z" fill="#F8EEEF"/>
    </g>

    <g id="snapchat">
        <path d="M12.0005 0.688965C5.37146 0.688965 0.000488281 5.68186 0.000488281 11.8443C0.000488281 18.0067 5.37146 22.9996 12.0005 22.9996C18.6295 22.9996 24.0005 18.0067 24.0005 11.8443C24.0005 5.68186 18.6295 0.688965 12.0005 0.688965ZM20.2021 15.933C20.0327 16.2974 19.3263 16.5628 18.0344 16.7517C17.9666 16.8372 17.9134 17.1925 17.8263 17.4669C17.7731 17.6333 17.6473 17.7323 17.4344 17.7323H17.4247C17.1247 17.7323 16.8053 17.6018 16.1763 17.6018C15.3247 17.6018 15.0295 17.7818 14.3666 18.2181C13.665 18.6814 12.9924 19.0772 11.986 19.0367C10.9698 19.1087 10.1182 18.5329 9.6392 18.2181C8.97146 17.7818 8.68113 17.6018 7.82952 17.6018C7.22468 17.6018 6.84242 17.7413 6.58113 17.7413C6.31984 17.7413 6.21823 17.5928 6.17952 17.4714C6.09242 17.197 6.0392 16.8372 5.97146 16.7517C5.30371 16.6572 3.80371 16.4143 3.76984 15.7891C3.76017 15.6272 3.88113 15.4832 4.05533 15.4562C6.29565 15.1144 7.3021 12.9778 7.34565 12.8878C7.34565 12.8833 7.35049 12.8788 7.35533 12.8743C7.47629 12.6494 7.50049 12.4605 7.43275 12.3121C7.26823 11.9567 6.56662 11.8308 6.27146 11.7183C5.50694 11.4394 5.40049 11.1156 5.44887 10.8952C5.52629 10.5128 6.14565 10.2744 6.50855 10.4319C6.79404 10.5578 7.05049 10.6208 7.26823 10.6208C7.42791 10.6208 7.53436 10.5848 7.58758 10.5578C7.51984 9.48276 7.36017 7.9489 7.77146 7.08977C8.86017 4.82722 11.1634 4.6473 11.8408 4.6473C11.8698 4.6473 12.136 4.6428 12.165 4.6428C13.844 4.6428 15.4553 5.44346 16.244 7.08527C16.6553 7.94441 16.4956 9.47376 16.4279 10.5533C16.4811 10.5803 16.5682 10.6118 16.7037 10.6163C16.9118 10.6073 17.1489 10.5443 17.415 10.4274C17.6086 10.3419 17.8795 10.3554 18.0731 10.4274C18.3779 10.5308 18.5715 10.7332 18.5763 10.9626C18.5811 11.255 18.3005 11.5069 17.744 11.7093C17.6763 11.7363 17.594 11.7588 17.5069 11.7858C17.1924 11.8802 16.7134 12.0197 16.5876 12.3031C16.5198 12.4515 16.5489 12.6404 16.665 12.8653C16.6698 12.8698 16.6698 12.8743 16.6747 12.8788C16.7182 12.9688 17.7247 15.1054 19.965 15.4472C20.1586 15.4922 20.3086 15.6946 20.2021 15.933Z" fill="#F8EEEF"/>
    </g>

    <g id="twitter">
        <path d="M12 0.688965C5.37321 0.688965 0 5.68395 0 11.8443C0 18.0046 5.37321 22.9996 12 22.9996C18.6268 22.9996 24 18.0046 24 11.8443C24 5.68395 18.6268 0.688965 12 0.688965ZM17.767 9.09777C17.775 9.2148 17.775 9.33681 17.775 9.45633C17.775 13.1117 14.7804 17.3223 9.30804 17.3223C7.62054 17.3223 6.05625 16.8666 4.73839 16.0823C4.97946 16.1072 5.20982 16.1171 5.45625 16.1171C6.84911 16.1171 8.12946 15.6789 9.15 14.9369C7.84286 14.912 6.74464 14.1152 6.36964 13.0196C6.82768 13.0818 7.24018 13.0818 7.71161 12.9698C7.03855 12.8426 6.43359 12.5028 5.99951 12.0081C5.56542 11.5133 5.32898 10.8941 5.33036 10.2556V10.2208C5.72411 10.4274 6.1875 10.5544 6.67232 10.5719C6.26476 10.3194 5.93051 9.97727 5.69923 9.57593C5.46794 9.17458 5.34676 8.72639 5.34643 8.27108C5.34643 7.75565 5.49107 7.28503 5.75089 6.87667C6.49795 7.73158 7.43017 8.4308 8.48696 8.92886C9.54375 9.42692 10.7014 9.71269 11.8848 9.76758C11.4643 7.88762 12.975 6.36621 14.7911 6.36621C15.6482 6.36621 16.4196 6.69988 16.9634 7.23772C17.6357 7.12069 18.2786 6.88663 18.8518 6.57289C18.6295 7.21282 18.1634 7.75316 17.5446 8.09429C18.1446 8.03453 18.7232 7.88015 19.2589 7.66352C18.8545 8.2163 18.3482 8.70683 17.767 9.09777Z" fill="#F8EEEF"/>
    </g>

    <g id="youtube">
        <path d="M33.6763 4.17411C33.4814 3.49924 33.0992 2.8838 32.568 2.38939C32.0368 1.89497 31.3753 1.53892 30.6496 1.35686C27.9782 0.688965 17.2699 0.688965 17.2699 0.688965C17.2699 0.688965 6.56166 0.688965 3.89033 1.35331C3.16429 1.53477 2.5024 1.89063 1.97111 2.38514C1.43983 2.87965 1.05787 3.4954 0.863575 4.17055C0.148926 6.6574 0.148926 11.8443 0.148926 11.8443C0.148926 11.8443 0.148926 17.0311 0.863575 19.5144C1.25721 20.8857 2.41899 21.9657 3.89033 22.3317C6.56166 22.9996 17.2699 22.9996 17.2699 22.9996C17.2699 22.9996 27.9782 22.9996 30.6496 22.3317C32.1247 21.9657 33.2827 20.8857 33.6763 19.5144C34.391 17.0311 34.391 11.8443 34.391 11.8443C34.391 11.8443 34.391 6.6574 33.6763 4.17411ZM13.8687 16.6048V7.08372L22.7349 11.8087L13.8687 16.6048Z" fill="#F8EEEF"/>
    </g>

<!-- skills-->

<!--  idiomes -->

    <g id="language">
        <path fill-rule="evenodd" clip-rule="evenodd" d="M14 7H21C22.6569 7 24 8.34315 24 10V21C24 22.6569 22.6569 24 21 24H13C11.3431 24 10 22.6569 10 21V17H3C1.34315 17 0 15.6569 0 14V3C0 1.34315 1.34315 0 3 0H11C12.6569 0 14 1.34315 14 3V7ZM14 9V11H16C16 10.4477 16.4477 10 17 10C17.5523 10 18 10.4477 18 11H18.9794C18.9924 10.9997 19.0054 10.9997 19.0185 11H20C20.5523 11 21 11.4477 21 12C21 12.5523 20.5523 13 20 13H19.7985C19.4241 14.4757 18.8531 15.8257 18.0876 17.0466C18.7882 17.8313 19.6099 18.538 20.5548 19.1679C21.0143 19.4743 21.1385 20.0952 20.8322 20.5547C20.5258 21.0142 19.9049 21.1384 19.4454 20.8321C18.4832 20.1906 17.6268 19.4745 16.8773 18.6846C16.2131 19.4542 15.4538 20.1597 14.6 20.8C14.1582 21.1314 13.5314 21.0418 13.2 20.6C12.8686 20.1582 12.9582 19.5314 13.4 19.2C14.2377 18.5717 14.9675 17.8745 15.5904 17.1065C15.2236 16.5795 14.8952 16.0263 14.6057 15.4472C14.3587 14.9532 14.5589 14.3526 15.0529 14.1056C15.5469 13.8586 16.1476 14.0588 16.3945 14.5528C16.5199 14.8035 16.6538 15.0485 16.7962 15.2878C17.1768 14.5736 17.4863 13.8113 17.7253 13H14V14C14 15.3062 13.1652 16.4175 12 16.8293V21C12 21.5523 12.4477 22 13 22H21C21.5523 22 22 21.5523 22 21V10C22 9.44771 21.5523 9 21 9H14ZM6.22076 9.5L7 7.16228L7.77924 9.5H6.22076ZM5.55409 11.5H8.44591L9.05132 13.3162C9.22596 13.8402 9.79228 14.1233 10.3162 13.9487C10.8402 13.774 11.1233 13.2077 10.9487 12.6838L7.94868 3.68377C7.64478 2.77208 6.35522 2.77208 6.05132 3.68377L3.05132 12.6838C2.87667 13.2077 3.15983 13.774 3.68377 13.9487C4.20772 14.1233 4.77404 13.8402 4.94868 13.3162L5.55409 11.5Z" fill="#F83F5C"/>
    </g>

    <g id="catalan">
        <path d="M4.44444 15.1111H59.5556V48.8889H4.44444V15.1111Z" fill="#F1B31C"/>
        <path d="M4.44444 19.5555H59.5556V23.1111H4.44444V19.5555ZM4.44444 26.6667H59.5556V30.2222H4.44444V26.6667ZM4.44444 33.7778H59.5556V37.3333H4.44444V33.7778ZM4.44444 40.8889H59.5556V44.4444H4.44444V40.8889Z" fill="#D22F27"/>
        <path d="M4.44444 15.1111H59.5556V48.8889H4.44444V15.1111Z" stroke="black" stroke-width="1.77778" stroke-linecap="round" stroke-linejoin="round"/>
    </g>

    <g id="english">
        <path d="M4.44446 15.1111H59.5556V48.8889H4.44446V15.1111Z" fill="white"/>
        <path d="M4.44446 15.1111H59.5556V19.5555H4.44446V15.1111ZM4.44446 23.1111H59.5556V26.6666H4.44446V23.1111ZM4.44446 30.2222H59.5556V33.7777H4.44446V30.2222Z" fill="#D22F27"/>
        <path d="M4.44446 15.1111H32.8889V33.7777H4.44446V15.1111Z" fill="#1E50A0"/>
        <path d="M4.44446 37.3333H59.5556V40.8889H4.44446V37.3333Z" fill="#D22F27"/>
        <path d="M8.44444 21.1111C9.30355 21.1111 10 20.4147 10 19.5556C10 18.6964 9.30355 18 8.44444 18C7.58533 18 6.88889 18.6964 6.88889 19.5556C6.88889 20.4147 7.58533 21.1111 8.44444 21.1111Z" fill="white"/>
        <path d="M15.5556 21.1111C16.4147 21.1111 17.1111 20.4147 17.1111 19.5556C17.1111 18.6964 16.4147 18 15.5556 18C14.6964 18 14 18.6964 14 19.5556C14 20.4147 14.6964 21.1111 15.5556 21.1111Z" fill="white"/>
        <path d="M22.6667 21.1111C23.5258 21.1111 24.2222 20.4147 24.2222 19.5556C24.2222 18.6964 23.5258 18 22.6667 18C21.8076 18 21.1111 18.6964 21.1111 19.5556C21.1111 20.4147 21.8076 21.1111 22.6667 21.1111Z" fill="white"/>
        <path d="M29.7778 21.1111C30.6369 21.1111 31.3333 20.4147 31.3333 19.5556C31.3333 18.6964 30.6369 18 29.7778 18C28.9187 18 28.2222 18.6964 28.2222 19.5556C28.2222 20.4147 28.9187 21.1111 29.7778 21.1111Z" fill="white"/>
        <path d="M26.2222 24.6667C27.0813 24.6667 27.7778 23.9702 27.7778 23.1111C27.7778 22.252 27.0813 21.5555 26.2222 21.5555C25.3631 21.5555 24.6667 22.252 24.6667 23.1111C24.6667 23.9702 25.3631 24.6667 26.2222 24.6667Z" fill="white"/>
        <path d="M19.1111 24.6667C19.9702 24.6667 20.6667 23.9702 20.6667 23.1111C20.6667 22.252 19.9702 21.5555 19.1111 21.5555C18.252 21.5555 17.5555 22.252 17.5555 23.1111C17.5555 23.9702 18.252 24.6667 19.1111 24.6667Z" fill="white"/>
        <path d="M12 24.6667C12.8591 24.6667 13.5556 23.9702 13.5556 23.1111C13.5556 22.252 12.8591 21.5555 12 21.5555C11.1409 21.5555 10.4445 22.252 10.4445 23.1111C10.4445 23.9702 11.1409 24.6667 12 24.6667Z" fill="white"/>
        <path d="M8.44444 28.2222C9.30355 28.2222 10 27.5257 10 26.6666C10 25.8075 9.30355 25.1111 8.44444 25.1111C7.58533 25.1111 6.88889 25.8075 6.88889 26.6666C6.88889 27.5257 7.58533 28.2222 8.44444 28.2222Z" fill="white"/>
        <path d="M15.5556 28.2222C16.4147 28.2222 17.1111 27.5257 17.1111 26.6666C17.1111 25.8075 16.4147 25.1111 15.5556 25.1111C14.6964 25.1111 14 25.8075 14 26.6666C14 27.5257 14.6964 28.2222 15.5556 28.2222Z" fill="white"/>
        <path d="M22.6667 28.2222C23.5258 28.2222 24.2222 27.5257 24.2222 26.6666C24.2222 25.8075 23.5258 25.1111 22.6667 25.1111C21.8076 25.1111 21.1111 25.8075 21.1111 26.6666C21.1111 27.5257 21.8076 28.2222 22.6667 28.2222Z" fill="white"/>
        <path d="M29.7778 28.2222C30.6369 28.2222 31.3333 27.5257 31.3333 26.6666C31.3333 25.8075 30.6369 25.1111 29.7778 25.1111C28.9187 25.1111 28.2222 25.8075 28.2222 26.6666C28.2222 27.5257 28.9187 28.2222 29.7778 28.2222Z" fill="white"/>
        <path d="M26.2222 31.7778C27.0813 31.7778 27.7778 31.0814 27.7778 30.2222C27.7778 29.3631 27.0813 28.6667 26.2222 28.6667C25.3631 28.6667 24.6667 29.3631 24.6667 30.2222C24.6667 31.0814 25.3631 31.7778 26.2222 31.7778Z" fill="white"/>
        <path d="M19.1111 31.7778C19.9702 31.7778 20.6667 31.0814 20.6667 30.2222C20.6667 29.3631 19.9702 28.6667 19.1111 28.6667C18.252 28.6667 17.5555 29.3631 17.5555 30.2222C17.5555 31.0814 18.252 31.7778 19.1111 31.7778Z" fill="white"/>
        <path d="M12 31.7778C12.8591 31.7778 13.5556 31.0814 13.5556 30.2222C13.5556 29.3631 12.8591 28.6667 12 28.6667C11.1409 28.6667 10.4445 29.3631 10.4445 30.2222C10.4445 31.0814 11.1409 31.7778 12 31.7778Z" fill="white"/>
        <path d="M4.44446 44.4445H59.5556V48.8889H4.44446V44.4445Z" fill="#D22F27"/>
        <path d="M4.44446 15.1111H59.5556V48.8889H4.44446V15.1111Z" stroke="black" stroke-width="1.77778" stroke-linecap="round" stroke-linejoin="round"/>
    </g>

    <g id="france">
        <path d="M4.44446 15.1111H59.5556V48.8889H4.44446V15.1111Z" fill="white"/>
        <path d="M4.44446 15.1111H23.1111V48.8889H4.44446V15.1111Z" fill="#1E50A0"/>
        <path d="M40.8889 15.1111H59.5556V48.8889H40.8889V15.1111Z" fill="#D22F27"/>
        <path d="M4.44446 15.1111H59.5556V48.8889H4.44446V15.1111Z" stroke="black" stroke-width="1.77778" stroke-linecap="round" stroke-linejoin="round"/>
    </g>

<!--  informatica  -->

    <g id="word">
        <defs><linearGradient id="a" x1="4.494" y1="-1712.086" x2="13.832" y2="-1695.914" gradientTransform="translate(0 1720)" gradientUnits="userSpaceOnUse"><stop offset="0" stop-color="#2368c4"/><stop offset="0.5" stop-color="#1a5dbe"/><stop offset="1" stop-color="#1146ac"/></linearGradient></defs><title>file_type_word</title><path d="M28.806,3H9.705A1.192,1.192,0,0,0,8.512,4.191h0V9.5l11.069,3.25L30,9.5V4.191A1.192,1.192,0,0,0,28.806,3Z" style="fill:#41a5ee"/><path d="M30,9.5H8.512V16l11.069,1.95L30,16Z" style="fill:#2b7cd3"/><path d="M8.512,16v6.5L18.93,23.8,30,22.5V16Z" style="fill:#185abd"/><path d="M9.705,29h19.1A1.192,1.192,0,0,0,30,27.809h0V22.5H8.512v5.309A1.192,1.192,0,0,0,9.705,29Z" style="fill:#103f91"/><path d="M16.434,8.2H8.512V24.45h7.922a1.2,1.2,0,0,0,1.194-1.191V9.391A1.2,1.2,0,0,0,16.434,8.2Z" style="opacity:0.10000000149011612;isolation:isolate"/><path d="M15.783,8.85H8.512V25.1h7.271a1.2,1.2,0,0,0,1.194-1.191V10.041A1.2,1.2,0,0,0,15.783,8.85Z" style="opacity:0.20000000298023224;isolation:isolate"/><path d="M15.783,8.85H8.512V23.8h7.271a1.2,1.2,0,0,0,1.194-1.191V10.041A1.2,1.2,0,0,0,15.783,8.85Z" style="opacity:0.20000000298023224;isolation:isolate"/><path d="M15.132,8.85H8.512V23.8h6.62a1.2,1.2,0,0,0,1.194-1.191V10.041A1.2,1.2,0,0,0,15.132,8.85Z" style="opacity:0.20000000298023224;isolation:isolate"/><path d="M3.194,8.85H15.132a1.193,1.193,0,0,1,1.194,1.191V21.959a1.193,1.193,0,0,1-1.194,1.191H3.194A1.192,1.192,0,0,1,2,21.959V10.041A1.192,1.192,0,0,1,3.194,8.85Z" style="fill:url(#a)"/><path d="M6.9,17.988c.023.184.039.344.046.481h.028c.01-.13.032-.287.065-.47s.062-.338.089-.465l1.255-5.407h1.624l1.3,5.326a7.761,7.761,0,0,1,.162,1h.022a7.6,7.6,0,0,1,.135-.975l1.039-5.358h1.477l-1.824,7.748H10.591L9.354,14.742q-.054-.222-.122-.578t-.084-.52H9.127q-.021.189-.084.561c-.042.249-.075.432-.1.552L7.78,19.871H6.024L4.19,12.127h1.5l1.131,5.418A4.469,4.469,0,0,1,6.9,17.988Z" style="fill:#fff"/>
    </g>

    <g id="powerpoint">
        <defs><linearGradient id="a" x1="4.494" y1="-1748.086" x2="13.832" y2="-1731.914" gradientTransform="translate(0 1756)" gradientUnits="userSpaceOnUse"><stop offset="0" stop-color="#ca4c28"/><stop offset="0.5" stop-color="#c5401e"/><stop offset="1" stop-color="#b62f14"/></linearGradient></defs><title>file_type_powerpoint</title><path d="M18.93,17.3,16.977,3h-.146A12.9,12.9,0,0,0,3.953,15.854V16Z" style="fill:#ed6c47"/><path d="M17.123,3h-.146V16l6.511,2.6L30,16v-.146A12.9,12.9,0,0,0,17.123,3Z" style="fill:#ff8f6b"/><path d="M30,16v.143A12.905,12.905,0,0,1,17.12,29h-.287A12.907,12.907,0,0,1,3.953,16.143V16Z" style="fill:#d35230"/><path d="M17.628,9.389V23.26a1.2,1.2,0,0,1-.742,1.1,1.16,1.16,0,0,1-.45.091H7.027c-.182-.208-.358-.429-.521-.65a12.735,12.735,0,0,1-2.553-7.657v-.286A12.705,12.705,0,0,1,6.05,8.85c.143-.221.293-.442.456-.65h9.93A1.2,1.2,0,0,1,17.628,9.389Z" style="opacity:0.10000000149011612;isolation:isolate"/><path d="M16.977,10.04V23.911a1.15,1.15,0,0,1-.091.448,1.2,1.2,0,0,1-1.1.741H7.62q-.309-.314-.593-.65c-.182-.208-.358-.429-.521-.65a12.735,12.735,0,0,1-2.553-7.657v-.286A12.705,12.705,0,0,1,6.05,8.85h9.735A1.2,1.2,0,0,1,16.977,10.04Z" style="opacity:0.20000000298023224;isolation:isolate"/><path d="M16.977,10.04V22.611A1.2,1.2,0,0,1,15.785,23.8H6.506a12.735,12.735,0,0,1-2.553-7.657v-.286A12.705,12.705,0,0,1,6.05,8.85h9.735A1.2,1.2,0,0,1,16.977,10.04Z" style="opacity:0.20000000298023224;isolation:isolate"/><path d="M16.326,10.04V22.611A1.2,1.2,0,0,1,15.134,23.8H6.506a12.735,12.735,0,0,1-2.553-7.657v-.286A12.705,12.705,0,0,1,6.05,8.85h9.084A1.2,1.2,0,0,1,16.326,10.04Z" style="opacity:0.20000000298023224;isolation:isolate"/><path d="M3.194,8.85H15.132a1.193,1.193,0,0,1,1.194,1.191V21.959a1.193,1.193,0,0,1-1.194,1.191H3.194A1.192,1.192,0,0,1,2,21.959V10.041A1.192,1.192,0,0,1,3.194,8.85Z" style="fill:url(#a)"/><path d="M9.293,12.028a3.287,3.287,0,0,1,2.174.636,2.27,2.27,0,0,1,.756,1.841,2.555,2.555,0,0,1-.373,1.376,2.49,2.49,0,0,1-1.059.935A3.607,3.607,0,0,1,9.2,17.15H7.687v2.8H6.141V12.028ZM7.686,15.94H9.017a1.735,1.735,0,0,0,1.177-.351,1.3,1.3,0,0,0,.4-1.025q0-1.309-1.525-1.31H7.686V15.94Z" style="fill:#fff"/>
    </g>

    <g id="excel">
        <defs><linearGradient id="a" x1="4.494" y1="-2092.086" x2="13.832" y2="-2075.914" gradientTransform="translate(0 2100)" gradientUnits="userSpaceOnUse"><stop offset="0" stop-color="#18884f"/><stop offset="0.5" stop-color="#117e43"/><stop offset="1" stop-color="#0b6631"/></linearGradient></defs><title>file_type_excel</title><path d="M19.581,15.35,8.512,13.4V27.809A1.192,1.192,0,0,0,9.705,29h19.1A1.192,1.192,0,0,0,30,27.809h0V22.5Z" style="fill:#185c37"/><path d="M19.581,3H9.705A1.192,1.192,0,0,0,8.512,4.191h0V9.5L19.581,16l5.861,1.95L30,16V9.5Z" style="fill:#21a366"/><path d="M8.512,9.5H19.581V16H8.512Z" style="fill:#107c41"/><path d="M16.434,8.2H8.512V24.45h7.922a1.2,1.2,0,0,0,1.194-1.191V9.391A1.2,1.2,0,0,0,16.434,8.2Z" style="opacity:0.10000000149011612;isolation:isolate"/><path d="M15.783,8.85H8.512V25.1h7.271a1.2,1.2,0,0,0,1.194-1.191V10.041A1.2,1.2,0,0,0,15.783,8.85Z" style="opacity:0.20000000298023224;isolation:isolate"/><path d="M15.783,8.85H8.512V23.8h7.271a1.2,1.2,0,0,0,1.194-1.191V10.041A1.2,1.2,0,0,0,15.783,8.85Z" style="opacity:0.20000000298023224;isolation:isolate"/><path d="M15.132,8.85H8.512V23.8h6.62a1.2,1.2,0,0,0,1.194-1.191V10.041A1.2,1.2,0,0,0,15.132,8.85Z" style="opacity:0.20000000298023224;isolation:isolate"/><path d="M3.194,8.85H15.132a1.193,1.193,0,0,1,1.194,1.191V21.959a1.193,1.193,0,0,1-1.194,1.191H3.194A1.192,1.192,0,0,1,2,21.959V10.041A1.192,1.192,0,0,1,3.194,8.85Z" style="fill:url(#a)"/><path d="M5.7,19.873l2.511-3.884-2.3-3.862H7.758L9.013,14.6c.116.234.2.408.238.524h.017c.082-.188.169-.369.26-.546l1.342-2.447h1.7l-2.359,3.84,2.419,3.905H10.821l-1.45-2.711A2.355,2.355,0,0,1,9.2,16.8H9.176a1.688,1.688,0,0,1-.168.351L7.515,19.873Z" style="fill:#fff"/><path d="M28.806,3H19.581V9.5H30V4.191A1.192,1.192,0,0,0,28.806,3Z" style="fill:#33c481"/><path d="M19.581,16H30v6.5H19.581Z" style="fill:#107c41"/>
    </g>

    <g id="access">
        <defs><linearGradient id="a" x1="4.416" y1="-1909.341" x2="13.909" y2="-1892.9" gradientTransform="translate(0 1917.121)" gradientUnits="userSpaceOnUse"><stop offset="0" stop-color="#b72c3f"/><stop offset="0.5" stop-color="#b12334"/><stop offset="1" stop-color="#9d1623"/></linearGradient></defs><title>file_type_access</title><path d="M8.512,20v6.667c0,1.84,4.81,3.333,10.744,3.333S30,28.507,30,26.667V20Z" style="fill:#881421"/><path d="M8.512,12.667V20c0,1.841,4.81,3.333,10.744,3.333S30,21.841,30,20V12.667Z" style="fill:#af2031"/><path d="M8.512,5.333v7.334c0,1.84,4.81,3.333,10.744,3.333S30,14.507,30,12.667V5.333Z" style="fill:#c94f60"/><ellipse cx="19.256" cy="5.333" rx="10.744" ry="3.333" style="fill:#e08095"/><path d="M16.434,8H8.512V24.667h7.922a1.212,1.212,0,0,0,1.194-1.222V9.222A1.212,1.212,0,0,0,16.434,8Z" style="opacity:0.10000000149011612;isolation:isolate"/><path d="M15.783,8.667H8.512V25.333h7.271a1.212,1.212,0,0,0,1.194-1.222V9.889A1.212,1.212,0,0,0,15.783,8.667Z" style="opacity:0.20000000298023224;isolation:isolate"/><path d="M15.783,8.667H8.512V24h7.271a1.212,1.212,0,0,0,1.194-1.222V9.889A1.212,1.212,0,0,0,15.783,8.667Z" style="opacity:0.20000000298023224;isolation:isolate"/><path d="M15.132,8.667H8.512V24h6.62a1.213,1.213,0,0,0,1.194-1.222V9.889A1.213,1.213,0,0,0,15.132,8.667Z" style="opacity:0.20000000298023224;isolation:isolate"/><path d="M3.194,8.667H15.132a1.208,1.208,0,0,1,1.194,1.222V22.111a1.208,1.208,0,0,1-1.194,1.222H3.194A1.208,1.208,0,0,1,2,22.111V9.889A1.208,1.208,0,0,1,3.194,8.667Z" style="fill:url(#a)"/><path d="M8.305,12.027h1.758l2.825,7.945h-1.66l-.623-1.895H7.7l-.611,1.895H5.437Zm1.926,4.826-.9-2.875a3.812,3.812,0,0,1-.165-.649H9.13A3.729,3.729,0,0,1,8.968,14l-.912,2.859Z" style="fill:#fff"/>
    </g>


</svg>
