<svg width="25" height="25" viewBox="0 0 25 25" fill="none" xmlns="http://www.w3.org/2000/svg">

<!--  logo  -->

    <g id="logo">
        <path d="M17.304 32.608C17.304 34.714 20.304 36.434 24 36.434C27.698 36.434 30.696 34.714 30.696 32.608H40.26V10.928C40.26 10.0825 39.9241 9.2716 39.3263 8.67373C38.7284 8.07587 37.9175 7.73999 37.072 7.73999H10.928C10.0827 7.74052 9.27208 8.07657 8.67433 8.67432C8.07658 9.27207 7.74053 10.0826 7.74 10.928V32.608H17.304Z" fill="#66E1FF"/>
        <path d="M36.436 7.73999H10.928C10.0827 7.74052 9.27208 8.07657 8.67433 8.67432C8.07658 9.27207 7.74053 10.0826 7.74 10.928V32.608H11.566L36.436 7.73999Z" fill="#C2F3FF"/>
        <path d="M17.304 32.608C17.304 34.714 20.304 36.434 24 36.434C27.698 36.434 30.696 34.714 30.696 32.608H40.26V10.928C40.26 10.0825 39.9241 9.2716 39.3263 8.67373C38.7284 8.07587 37.9175 7.73999 37.072 7.73999H10.928C10.0827 7.74052 9.27208 8.07657 8.67433 8.67432C8.07658 9.27207 7.74053 10.0826 7.74 10.928V32.608H17.304Z" stroke="#191919" stroke-width="2" stroke-linecap="round" stroke-linejoin="round"/>
        <path d="M30.696 32.608C30.696 34.714 27.698 36.434 24 36.434C20.302 36.434 17.304 34.714 17.304 32.608H2C2.54568 34.7941 3.80669 36.735 5.58247 38.1219C7.35825 39.5089 9.5468 40.2621 11.8 40.262H36.2C38.4532 40.2621 40.6418 39.5089 42.4175 38.1219C44.1933 36.735 45.4543 34.7941 46 32.608H30.696Z" fill="white" stroke="#191919" stroke-width="2" stroke-linecap="round" stroke-linejoin="round"/>
        <path d="M19.218 15.392V19.218M28.782 15.392V19.218M31.652 24C29.5319 25.8496 26.8135 26.8687 24 26.8687C21.1865 26.8687 18.4681 25.8496 16.348 24" stroke="#191919" stroke-width="2" stroke-linecap="round" stroke-linejoin="round"/>
    </g>

<!--  contacts  -->

    <g id="phone">
    <path d="M13.858 16.0729L16.417 13.8675C16.5009 13.7914 16.6018 13.7339 16.7124 13.6992C16.8229 13.6645 16.9403 13.6535 17.056 13.667L17.482 13.8675L23.444 16.473C23.87 16.6735 23.87 16.874 23.87 17.275C23.8565 17.9527 23.6992 18.621 23.4072 19.2406C23.1153 19.8602 22.6946 20.4186 22.17 20.8829C21.5776 21.4196 20.8761 21.8379 20.1076 22.1129C19.3391 22.3879 18.5195 22.5138 17.698 22.4831C15.6199 22.4715 13.5752 21.9902 11.736 21.0797C9.56765 19.9977 7.56034 18.6514 5.766 17.0754C4.5807 15.6861 3.51277 14.2117 2.572 12.6655C1.72691 11.2568 1.01452 9.78121 0.442996 8.25554C0.0912664 7.01498 -0.0524657 5.73033 0.0169965 4.44802C0.157232 3.32092 0.680145 2.26651 1.508 1.44155C2.64648 0.552618 4.07395 0.0573397 5.553 0.0380859C5.71778 0.0409482 5.8798 0.0784389 6.02721 0.147817C6.17462 0.217195 6.30369 0.316706 6.405 0.439075L9.599 6.05104C9.62133 6.20308 9.69617 6.34399 9.812 6.45203C9.82635 6.56089 9.81467 6.6714 9.77782 6.77546C9.74097 6.87953 9.67987 6.97453 9.599 7.05351L6.831 9.45851C6.72459 9.60648 6.66773 9.78106 6.66773 9.95974C6.66773 10.1384 6.72459 10.313 6.831 10.461C7.56107 11.6112 8.41743 12.6861 9.386 13.668C10.4243 14.6436 11.5659 15.5166 12.793 16.2734C13.217 16.4739 13.645 16.4739 13.858 16.0729Z" fill="#F8EEEF"/>
</g>

    <g id="email">
        <path fill-rule="evenodd" clip-rule="evenodd" d="M20.868 6.47395H2.981L11.924 13.4894L20.868 6.47395ZM0 6.47395C0.00237401 5.73045 0.317205 5.01803 0.875737 4.49229C1.43427 3.96655 2.19112 3.6702 2.981 3.66797L20.868 3.66797C21.6579 3.6702 22.4147 3.96655 22.9733 4.49229C23.5318 5.01803 23.8466 5.73045 23.849 6.47395V17.6979C23.8466 18.4414 23.5318 19.1538 22.9733 19.6795C22.4147 20.2053 21.6579 20.5016 20.868 20.5039H2.981C2.19112 20.5016 1.43427 20.2053 0.875737 19.6795C0.317205 19.1538 0.00237401 18.4414 0 17.6979L0 6.47395Z" fill="#F8EEEF"/>
    </g>

    <g id="location">
        <path fill-rule="evenodd" clip-rule="evenodd" d="M10.8494 14.4058C11.4301 14.4067 12.0052 14.2984 12.5418 14.087C13.0784 13.8757 13.566 13.5654 13.9765 13.1741C14.3871 12.7828 14.7126 12.318 14.9343 11.8066C15.156 11.2951 15.2697 10.7469 15.2687 10.1935C15.277 9.05984 14.819 7.96823 13.9929 7.15263C13.1668 6.33703 12.0383 5.86235 10.8494 5.83034C10.2687 5.82927 9.69351 5.93749 9.15677 6.14878C8.62004 6.36008 8.13235 6.6703 7.72167 7.06164C7.311 7.45299 6.98542 7.91776 6.76361 8.4293C6.54181 8.94085 6.42813 9.4891 6.42911 10.0426C6.4483 11.1685 6.91549 12.2454 7.73613 13.0555C8.55678 13.8655 9.6696 14.3481 10.8494 14.4058ZM3.43017 2.97085C5.39789 1.09544 8.06662 0.0418972 10.8493 0.0419922C13.6319 0.0420871 16.3006 1.09581 18.2682 2.97136C20.2357 4.8469 21.3411 7.39064 21.341 10.043C21.3409 12.6953 20.2354 15.239 18.2676 17.1144L10.8494 24.1871L3.43017 17.1144C1.5297 15.2055 0.470215 12.6742 0.470215 10.0426C0.470215 7.41101 1.5297 4.87976 3.43017 2.97085Z" fill="white"/>
    </g>

<!--  social  -->

    <g id="linkedin">
        <path d="M19 3C19.5304 3 20.0391 3.21071 20.4142 3.58579C20.7893 3.96086 21 4.46957 21 5V19C21 19.5304 20.7893 20.0391 20.4142 20.4142C20.0391 20.7893 19.5304 21 19 21H5C4.46957 21 3.96086 20.7893 3.58579 20.4142C3.21071 20.0391 3 19.5304 3 19V5C3 4.46957 3.21071 3.96086 3.58579 3.58579C3.96086 3.21071 4.46957 3 5 3H19ZM18.5 18.5V13.2C18.5 12.3354 18.1565 11.5062 17.5452 10.8948C16.9338 10.2835 16.1046 9.94 15.24 9.94C14.39 9.94 13.4 10.46 12.92 11.24V10.13H10.13V18.5H12.92V13.57C12.92 12.8 13.54 12.17 14.31 12.17C14.6813 12.17 15.0374 12.3175 15.2999 12.5801C15.5625 12.8426 15.71 13.1987 15.71 13.57V18.5H18.5ZM6.88 8.56C7.32556 8.56 7.75288 8.383 8.06794 8.06794C8.383 7.75288 8.56 7.32556 8.56 6.88C8.56 5.95 7.81 5.19 6.88 5.19C6.43178 5.19 6.00193 5.36805 5.68499 5.68499C5.36805 6.00193 5.19 6.43178 5.19 6.88C5.19 7.81 5.95 8.56 6.88 8.56ZM8.27 18.5V10.13H5.5V18.5H8.27Z" fill="#F8EEEF"/>
    </g>

    <g id="facebook">
        <path d="M24.1492 11.9134C24.1492 5.71258 18.7406 0.688965 12.0748 0.688965C5.40451 0.688965 0.000488281 5.71258 0.000488281 11.9134C0.000488281 17.5143 4.41441 22.1584 10.1882 22.9996V15.1586H7.12208V11.9141H10.1882V9.43979C10.1882 6.62737 11.988 5.0742 14.747 5.0742C16.0684 5.0742 17.4517 5.29307 17.4517 5.29307V8.05498H15.9265C14.4293 8.05498 13.9614 8.92136 13.9614 9.80879V11.9134H17.3098L16.7717 15.1579H13.9614V22.9989C19.7307 22.1577 24.1492 17.5143 24.1492 11.9134Z" fill="#F8EEEF"/>
    </g>

    <g id="instagram">
        <path d="M11.997 8.12425C9.79351 8.12425 7.99529 9.79588 7.99529 11.8443C7.99529 13.8926 9.79351 15.5643 11.997 15.5643C14.2005 15.5643 15.9987 13.8926 15.9987 11.8443C15.9987 9.79588 14.2005 8.12425 11.997 8.12425ZM23.9991 11.8443C23.9991 10.3038 24.0141 8.77727 23.9211 7.23959C23.828 5.45354 23.3897 3.86841 21.9847 2.56236C20.5768 1.25352 18.8746 0.848865 16.9533 0.762353C15.2962 0.675841 13.6541 0.689795 12 0.689795C10.3429 0.689795 8.70077 0.675841 7.04665 0.762353C5.12536 0.848865 3.4202 1.25631 2.01525 2.56236C0.607303 3.8712 0.172008 5.45354 0.0789456 7.23959C-0.0141172 8.78006 0.000892936 10.3066 0.000892936 11.8443C0.000892936 13.3819 -0.0141172 14.9113 0.0789456 16.4489C0.172008 18.235 0.610305 19.8201 2.01525 21.1262C3.4232 22.435 5.12536 22.8397 7.04665 22.9262C8.70377 23.0127 10.3459 22.9987 12 22.9987C13.6571 22.9987 15.2992 23.0127 16.9533 22.9262C18.8746 22.8397 20.5798 22.4322 21.9847 21.1262C23.3927 19.8173 23.828 18.235 23.9211 16.4489C24.0171 14.9113 23.9991 13.3847 23.9991 11.8443ZM11.997 17.568C8.58969 17.568 5.83984 15.0117 5.83984 11.8443C5.83984 8.67681 8.58969 6.12052 11.997 6.12052C15.4043 6.12052 18.1542 8.67681 18.1542 11.8443C18.1542 15.0117 15.4043 17.568 11.997 17.568ZM18.4063 7.22285C17.6108 7.22285 16.9684 6.62563 16.9684 5.8861C16.9684 5.14656 17.6108 4.54935 18.4063 4.54935C19.2019 4.54935 19.8443 5.14656 19.8443 5.8861C19.8445 6.0617 19.8075 6.23563 19.7353 6.39791C19.6631 6.56019 19.5572 6.70764 19.4237 6.83181C19.2901 6.95599 19.1315 7.05444 18.9569 7.12154C18.7823 7.18864 18.5952 7.22307 18.4063 7.22285Z" fill="#F8EEEF"/>
    </g>


    <g id="whatsapp">
        <path d="M19.05 4.90999C18.1331 3.9841 17.041 3.24996 15.8375 2.75036C14.634 2.25075 13.3431 1.99568 12.04 1.99999C6.58 1.99999 2.13 6.44999 2.13 11.91C2.13 13.66 2.59 15.36 3.45 16.86L2.05 22L7.3 20.62C8.75 21.41 10.38 21.83 12.04 21.83C17.5 21.83 21.95 17.38 21.95 11.92C21.95 9.26999 20.92 6.77999 19.05 4.90999ZM12.04 20.15C10.56 20.15 9.11 19.75 7.84 19L7.54 18.82L4.42 19.64L5.25 16.6L5.05 16.29C4.22755 14.9771 3.79092 13.4593 3.79 11.91C3.79 7.36999 7.49 3.66999 12.03 3.66999C14.23 3.66999 16.3 4.52999 17.85 6.08999C18.6176 6.85386 19.2259 7.76254 19.6396 8.76332C20.0533 9.76411 20.2642 10.8371 20.26 11.92C20.28 16.46 16.58 20.15 12.04 20.15ZM16.56 13.99C16.31 13.87 15.09 13.27 14.87 13.18C14.64 13.1 14.48 13.06 14.31 13.3C14.14 13.55 13.67 14.11 13.53 14.27C13.39 14.44 13.24 14.46 12.99 14.33C12.74 14.21 11.94 13.94 11 13.1C10.26 12.44 9.77 11.63 9.62 11.38C9.48 11.13 9.6 11 9.73 10.87C9.84 10.76 9.98 10.58 10.1 10.44C10.22 10.3 10.27 10.19 10.35 10.03C10.43 9.85999 10.39 9.71999 10.33 9.59999C10.27 9.47999 9.77 8.25999 9.57 7.75999C9.37 7.27999 9.16 7.33999 9.01 7.32999H8.53C8.36 7.32999 8.1 7.38999 7.87 7.63999C7.65 7.88999 7.01 8.48999 7.01 9.70999C7.01 10.93 7.9 12.11 8.02 12.27C8.14 12.44 9.77 14.94 12.25 16.01C12.84 16.27 13.3 16.42 13.66 16.53C14.25 16.72 14.79 16.69 15.22 16.63C15.7 16.56 16.69 16.03 16.89 15.45C17.1 14.87 17.1 14.38 17.03 14.27C16.96 14.16 16.81 14.11 16.56 13.99Z" fill="#F8EEEF"/>
    </g>

    <g id="snapchat">
        <path d="M12.0005 0.688965C5.37146 0.688965 0.000488281 5.68186 0.000488281 11.8443C0.000488281 18.0067 5.37146 22.9996 12.0005 22.9996C18.6295 22.9996 24.0005 18.0067 24.0005 11.8443C24.0005 5.68186 18.6295 0.688965 12.0005 0.688965ZM20.2021 15.933C20.0327 16.2974 19.3263 16.5628 18.0344 16.7517C17.9666 16.8372 17.9134 17.1925 17.8263 17.4669C17.7731 17.6333 17.6473 17.7323 17.4344 17.7323H17.4247C17.1247 17.7323 16.8053 17.6018 16.1763 17.6018C15.3247 17.6018 15.0295 17.7818 14.3666 18.2181C13.665 18.6814 12.9924 19.0772 11.986 19.0367C10.9698 19.1087 10.1182 18.5329 9.6392 18.2181C8.97146 17.7818 8.68113 17.6018 7.82952 17.6018C7.22468 17.6018 6.84242 17.7413 6.58113 17.7413C6.31984 17.7413 6.21823 17.5928 6.17952 17.4714C6.09242 17.197 6.0392 16.8372 5.97146 16.7517C5.30371 16.6572 3.80371 16.4143 3.76984 15.7891C3.76017 15.6272 3.88113 15.4832 4.05533 15.4562C6.29565 15.1144 7.3021 12.9778 7.34565 12.8878C7.34565 12.8833 7.35049 12.8788 7.35533 12.8743C7.47629 12.6494 7.50049 12.4605 7.43275 12.3121C7.26823 11.9567 6.56662 11.8308 6.27146 11.7183C5.50694 11.4394 5.40049 11.1156 5.44887 10.8952C5.52629 10.5128 6.14565 10.2744 6.50855 10.4319C6.79404 10.5578 7.05049 10.6208 7.26823 10.6208C7.42791 10.6208 7.53436 10.5848 7.58758 10.5578C7.51984 9.48276 7.36017 7.9489 7.77146 7.08977C8.86017 4.82722 11.1634 4.6473 11.8408 4.6473C11.8698 4.6473 12.136 4.6428 12.165 4.6428C13.844 4.6428 15.4553 5.44346 16.244 7.08527C16.6553 7.94441 16.4956 9.47376 16.4279 10.5533C16.4811 10.5803 16.5682 10.6118 16.7037 10.6163C16.9118 10.6073 17.1489 10.5443 17.415 10.4274C17.6086 10.3419 17.8795 10.3554 18.0731 10.4274C18.3779 10.5308 18.5715 10.7332 18.5763 10.9626C18.5811 11.255 18.3005 11.5069 17.744 11.7093C17.6763 11.7363 17.594 11.7588 17.5069 11.7858C17.1924 11.8802 16.7134 12.0197 16.5876 12.3031C16.5198 12.4515 16.5489 12.6404 16.665 12.8653C16.6698 12.8698 16.6698 12.8743 16.6747 12.8788C16.7182 12.9688 17.7247 15.1054 19.965 15.4472C20.1586 15.4922 20.3086 15.6946 20.2021 15.933Z" fill="#F8EEEF"/>
    </g>

    <g id="twitter">
        <path d="M12 0.688965C5.37321 0.688965 0 5.68395 0 11.8443C0 18.0046 5.37321 22.9996 12 22.9996C18.6268 22.9996 24 18.0046 24 11.8443C24 5.68395 18.6268 0.688965 12 0.688965ZM17.767 9.09777C17.775 9.2148 17.775 9.33681 17.775 9.45633C17.775 13.1117 14.7804 17.3223 9.30804 17.3223C7.62054 17.3223 6.05625 16.8666 4.73839 16.0823C4.97946 16.1072 5.20982 16.1171 5.45625 16.1171C6.84911 16.1171 8.12946 15.6789 9.15 14.9369C7.84286 14.912 6.74464 14.1152 6.36964 13.0196C6.82768 13.0818 7.24018 13.0818 7.71161 12.9698C7.03855 12.8426 6.43359 12.5028 5.99951 12.0081C5.56542 11.5133 5.32898 10.8941 5.33036 10.2556V10.2208C5.72411 10.4274 6.1875 10.5544 6.67232 10.5719C6.26476 10.3194 5.93051 9.97727 5.69923 9.57593C5.46794 9.17458 5.34676 8.72639 5.34643 8.27108C5.34643 7.75565 5.49107 7.28503 5.75089 6.87667C6.49795 7.73158 7.43017 8.4308 8.48696 8.92886C9.54375 9.42692 10.7014 9.71269 11.8848 9.76758C11.4643 7.88762 12.975 6.36621 14.7911 6.36621C15.6482 6.36621 16.4196 6.69988 16.9634 7.23772C17.6357 7.12069 18.2786 6.88663 18.8518 6.57289C18.6295 7.21282 18.1634 7.75316 17.5446 8.09429C18.1446 8.03453 18.7232 7.88015 19.2589 7.66352C18.8545 8.2163 18.3482 8.70683 17.767 9.09777Z" fill="#F8EEEF"/>
    </g>

    <g id="youtube">
        <path d="M33.6763 4.17411C33.4814 3.49924 33.0992 2.8838 32.568 2.38939C32.0368 1.89497 31.3753 1.53892 30.6496 1.35686C27.9782 0.688965 17.2699 0.688965 17.2699 0.688965C17.2699 0.688965 6.56166 0.688965 3.89033 1.35331C3.16429 1.53477 2.5024 1.89063 1.97111 2.38514C1.43983 2.87965 1.05787 3.4954 0.863575 4.17055C0.148926 6.6574 0.148926 11.8443 0.148926 11.8443C0.148926 11.8443 0.148926 17.0311 0.863575 19.5144C1.25721 20.8857 2.41899 21.9657 3.89033 22.3317C6.56166 22.9996 17.2699 22.9996 17.2699 22.9996C17.2699 22.9996 27.9782 22.9996 30.6496 22.3317C32.1247 21.9657 33.2827 20.8857 33.6763 19.5144C34.391 17.0311 34.391 11.8443 34.391 11.8443C34.391 11.8443 34.391 6.6574 33.6763 4.17411ZM13.8687 16.6048V7.08372L22.7349 11.8087L13.8687 16.6048Z" fill="#F8EEEF"/>
    </g>


</svg>
