<svg width="48" height="48" viewBox="0 0 48 48" fill="none" xmlns="http://www.w3.org/2000/svg">
<path d="M17.304 32.608C17.304 34.714 20.304 36.434 24 36.434C27.698 36.434 30.696 34.714 30.696 32.608H40.26V10.928C40.26 10.0825 39.9241 9.2716 39.3263 8.67373C38.7284 8.07587 37.9175 7.73999 37.072 7.73999H10.928C10.0827 7.74052 9.27208 8.07657 8.67433 8.67432C8.07658 9.27207 7.74053 10.0826 7.74 10.928V32.608H17.304Z" fill="#66E1FF"/>
<path d="M36.436 7.73999H10.928C10.0827 7.74052 9.27208 8.07657 8.67433 8.67432C8.07658 9.27207 7.74053 10.0826 7.74 10.928V32.608H11.566L36.436 7.73999Z" fill="#C2F3FF"/>
<path d="M17.304 32.608C17.304 34.714 20.304 36.434 24 36.434C27.698 36.434 30.696 34.714 30.696 32.608H40.26V10.928C40.26 10.0825 39.9241 9.2716 39.3263 8.67373C38.7284 8.07587 37.9175 7.73999 37.072 7.73999H10.928C10.0827 7.74052 9.27208 8.07657 8.67433 8.67432C8.07658 9.27207 7.74053 10.0826 7.74 10.928V32.608H17.304Z" stroke="#191919" stroke-width="2" stroke-linecap="round" stroke-linejoin="round"/>
<path d="M30.696 32.608C30.696 34.714 27.698 36.434 24 36.434C20.302 36.434 17.304 34.714 17.304 32.608H2C2.54568 34.7941 3.80669 36.735 5.58247 38.1219C7.35825 39.5089 9.5468 40.2621 11.8 40.262H36.2C38.4532 40.2621 40.6418 39.5089 42.4175 38.1219C44.1933 36.735 45.4543 34.7941 46 32.608H30.696Z" fill="white" stroke="#191919" stroke-width="2" stroke-linecap="round" stroke-linejoin="round"/>
<path d="M19.218 15.392V19.218M28.782 15.392V19.218M31.652 24C29.5319 25.8496 26.8135 26.8687 24 26.8687C21.1865 26.8687 18.4681 25.8496 16.348 24" stroke="#191919" stroke-width="2" stroke-linecap="round" stroke-linejoin="round"/>
</svg>
