<svg width="48" height="48" viewBox="0 0 48 48" fill="none" xmlns="http://www.w3.org/2000/svg">
<path d="M9 9.00001C15.9975 5.50201 21.75 9.75001 24 12.75C26.25 9.75001 32.0025 5.50201 39 9.00001C48 13.5 45.75 24.75 39 31.5C35.706 34.794 29.9055 40.5945 25.6635 43.821C25.1896 44.181 24.6083 44.3707 24.0133 44.3595C23.4184 44.3484 22.8445 44.137 22.3845 43.7595C18.495 40.62 12.2475 34.7475 9 31.5C2.25 24.75 -1.43051e-06 13.5 9 9.00001Z" fill="#F8312F"/>
<path d="M24 12.75V17.325C25.905 13.2975 30.6375 7.91999 38.487 8.75549C31.722 5.71049 26.1945 9.82349 24 12.75ZM17.919 8.30549C15.39 7.42499 12.3375 7.33049 9 8.99999C-1.43051e-06 13.5 2.25 24.75 9 31.5C12.2475 34.7475 18.495 40.62 22.3845 43.7595C22.8447 44.1367 23.4186 44.3479 24.0136 44.3587C24.6085 44.3696 25.1898 44.1796 25.6635 43.8195C26.0445 43.5295 26.437 43.2205 26.841 42.8925C22.56 39.678 16.551 34.614 13.2885 31.6995C5.853 25.053 3.3735 13.977 13.2885 9.54599C14.7528 8.87931 16.3175 8.46012 17.919 8.30549Z" fill="#CA0B4A"/>
<path d="M31.6297 25.1017C33.6644 26.2764 36.9192 24.4481 38.8996 21.018C40.8799 17.5879 40.8359 13.855 38.8012 12.6803C36.7666 11.5056 33.5118 13.3339 31.5314 16.764C29.5511 20.1941 29.5951 23.927 31.6297 25.1017Z" fill="#F37366"/>
</svg>
