<svg width="64" height="64" viewBox="0 0 64 64" fill="none" xmlns="http://www.w3.org/2000/svg">
<path d="M4.44446 15.1111H59.5556V48.8889H4.44446V15.1111Z" fill="white"/>
<path d="M4.44446 15.1111H59.5556V19.5555H4.44446V15.1111ZM4.44446 23.1111H59.5556V26.6666H4.44446V23.1111ZM4.44446 30.2222H59.5556V33.7777H4.44446V30.2222Z" fill="#D22F27"/>
<path d="M4.44446 15.1111H32.8889V33.7777H4.44446V15.1111Z" fill="#1E50A0"/>
<path d="M4.44446 37.3333H59.5556V40.8889H4.44446V37.3333Z" fill="#D22F27"/>
<path d="M8.44444 21.1111C9.30355 21.1111 10 20.4147 10 19.5556C10 18.6964 9.30355 18 8.44444 18C7.58533 18 6.88889 18.6964 6.88889 19.5556C6.88889 20.4147 7.58533 21.1111 8.44444 21.1111Z" fill="white"/>
<path d="M15.5556 21.1111C16.4147 21.1111 17.1111 20.4147 17.1111 19.5556C17.1111 18.6964 16.4147 18 15.5556 18C14.6964 18 14 18.6964 14 19.5556C14 20.4147 14.6964 21.1111 15.5556 21.1111Z" fill="white"/>
<path d="M22.6667 21.1111C23.5258 21.1111 24.2222 20.4147 24.2222 19.5556C24.2222 18.6964 23.5258 18 22.6667 18C21.8076 18 21.1111 18.6964 21.1111 19.5556C21.1111 20.4147 21.8076 21.1111 22.6667 21.1111Z" fill="white"/>
<path d="M29.7778 21.1111C30.6369 21.1111 31.3333 20.4147 31.3333 19.5556C31.3333 18.6964 30.6369 18 29.7778 18C28.9187 18 28.2222 18.6964 28.2222 19.5556C28.2222 20.4147 28.9187 21.1111 29.7778 21.1111Z" fill="white"/>
<path d="M26.2222 24.6667C27.0813 24.6667 27.7778 23.9702 27.7778 23.1111C27.7778 22.252 27.0813 21.5555 26.2222 21.5555C25.3631 21.5555 24.6667 22.252 24.6667 23.1111C24.6667 23.9702 25.3631 24.6667 26.2222 24.6667Z" fill="white"/>
<path d="M19.1111 24.6667C19.9702 24.6667 20.6667 23.9702 20.6667 23.1111C20.6667 22.252 19.9702 21.5555 19.1111 21.5555C18.252 21.5555 17.5555 22.252 17.5555 23.1111C17.5555 23.9702 18.252 24.6667 19.1111 24.6667Z" fill="white"/>
<path d="M12 24.6667C12.8591 24.6667 13.5556 23.9702 13.5556 23.1111C13.5556 22.252 12.8591 21.5555 12 21.5555C11.1409 21.5555 10.4445 22.252 10.4445 23.1111C10.4445 23.9702 11.1409 24.6667 12 24.6667Z" fill="white"/>
<path d="M8.44444 28.2222C9.30355 28.2222 10 27.5257 10 26.6666C10 25.8075 9.30355 25.1111 8.44444 25.1111C7.58533 25.1111 6.88889 25.8075 6.88889 26.6666C6.88889 27.5257 7.58533 28.2222 8.44444 28.2222Z" fill="white"/>
<path d="M15.5556 28.2222C16.4147 28.2222 17.1111 27.5257 17.1111 26.6666C17.1111 25.8075 16.4147 25.1111 15.5556 25.1111C14.6964 25.1111 14 25.8075 14 26.6666C14 27.5257 14.6964 28.2222 15.5556 28.2222Z" fill="white"/>
<path d="M22.6667 28.2222C23.5258 28.2222 24.2222 27.5257 24.2222 26.6666C24.2222 25.8075 23.5258 25.1111 22.6667 25.1111C21.8076 25.1111 21.1111 25.8075 21.1111 26.6666C21.1111 27.5257 21.8076 28.2222 22.6667 28.2222Z" fill="white"/>
<path d="M29.7778 28.2222C30.6369 28.2222 31.3333 27.5257 31.3333 26.6666C31.3333 25.8075 30.6369 25.1111 29.7778 25.1111C28.9187 25.1111 28.2222 25.8075 28.2222 26.6666C28.2222 27.5257 28.9187 28.2222 29.7778 28.2222Z" fill="white"/>
<path d="M26.2222 31.7778C27.0813 31.7778 27.7778 31.0814 27.7778 30.2222C27.7778 29.3631 27.0813 28.6667 26.2222 28.6667C25.3631 28.6667 24.6667 29.3631 24.6667 30.2222C24.6667 31.0814 25.3631 31.7778 26.2222 31.7778Z" fill="white"/>
<path d="M19.1111 31.7778C19.9702 31.7778 20.6667 31.0814 20.6667 30.2222C20.6667 29.3631 19.9702 28.6667 19.1111 28.6667C18.252 28.6667 17.5555 29.3631 17.5555 30.2222C17.5555 31.0814 18.252 31.7778 19.1111 31.7778Z" fill="white"/>
<path d="M12 31.7778C12.8591 31.7778 13.5556 31.0814 13.5556 30.2222C13.5556 29.3631 12.8591 28.6667 12 28.6667C11.1409 28.6667 10.4445 29.3631 10.4445 30.2222C10.4445 31.0814 11.1409 31.7778 12 31.7778Z" fill="white"/>
<path d="M4.44446 44.4445H59.5556V48.8889H4.44446V44.4445Z" fill="#D22F27"/>
<path d="M4.44446 15.1111H59.5556V48.8889H4.44446V15.1111Z" stroke="black" stroke-width="1.77778" stroke-linecap="round" stroke-linejoin="round"/>
</svg>
